<?xml version="1.0" encoding="utf-8"?>
<!-- Generator: Adobe Illustrator 15.1.0, SVG Export Plug-In . SVG Version: 6.00 Build 0)  -->
<!DOCTYPE svg PUBLIC "-//W3C//DTD SVG 1.1//EN" "http://www.w3.org/Graphics/SVG/1.1/DTD/svg11.dtd">
<svg version="1.1" xmlns="http://www.w3.org/2000/svg" xmlns:xlink="http://www.w3.org/1999/xlink" x="0px" y="0px" width="424px"
	 height="141.5px" viewBox="0 0 424 141.5" enable-background="new 0 0 424 141.5" xml:space="preserve">
<g id="Ebene_1">
</g>
<g id="TEXT">
	<path opacity="0.7" d="M411.805,67.378c0,5.399-4.377,9.776-9.776,9.776H18.406c-5.399,0-9.777-4.377-9.777-9.776V15.169
		c0-5.399,4.377-9.776,9.777-9.776h383.623c5.399,0,9.776,4.377,9.776,9.776V67.378z"/>
	<g>
		<path fill="#FFFFFF" d="M102.149,51.659V26.748h3.297v10.229h12.948V26.748h3.296v24.911h-3.296V39.917h-12.948v11.742H102.149z"
			/>
		<path fill="#FFFFFF" d="M128.088,51.659V26.748h3.296v24.911H128.088z"/>
		<path fill="#FFFFFF" d="M137.612,51.659V26.748h18.012v2.94h-14.715v7.629h13.781v2.923h-13.781v8.479h15.293v2.94H137.612z"/>
		<path fill="#FFFFFF" d="M161.155,51.659V26.748H172.2c2.22,0,3.909,0.224,5.064,0.671c1.155,0.448,2.079,1.238,2.77,2.371
			s1.037,2.385,1.037,3.755c0,1.768-0.572,3.257-1.716,4.469c-1.144,1.212-2.911,1.982-5.301,2.311
			c0.872,0.419,1.535,0.833,1.988,1.24c0.963,0.884,1.875,1.988,2.736,3.314l4.333,6.78h-4.146l-3.296-5.183
			c-0.963-1.496-1.756-2.64-2.379-3.433c-0.624-0.793-1.181-1.348-1.674-1.665c-0.493-0.317-0.994-0.538-1.504-0.663
			c-0.374-0.079-0.986-0.119-1.835-0.119h-3.823v11.062H161.155z M164.452,37.742h7.086c1.506,0,2.685-0.155,3.535-0.467
			c0.85-0.312,1.495-0.81,1.937-1.495s0.663-1.43,0.663-2.235c0-1.178-0.428-2.146-1.283-2.905
			c-0.855-0.759-2.207-1.139-4.053-1.139h-7.885V37.742z"/>
		<path fill="#FFFFFF" d="M202.31,51.659V29.688h-8.208v-2.94h19.746v2.94h-8.241v21.971H202.31z"/>
		<path fill="#FFFFFF" d="M218.139,51.659V26.748h3.297v24.911H218.139z"/>
		<path fill="#FFFFFF" d="M227.595,51.659V26.748h9.397c1.653,0,2.917,0.08,3.789,0.238c1.224,0.204,2.248,0.592,3.075,1.164
			c0.827,0.572,1.493,1.374,1.997,2.405s0.756,2.164,0.756,3.398c0,2.118-0.674,3.911-2.021,5.378
			c-1.349,1.467-3.784,2.201-7.308,2.201h-6.389v10.127H227.595z M230.892,38.592h6.44c2.129,0,3.642-0.396,4.537-1.189
			c0.895-0.792,1.342-1.909,1.342-3.348c0-1.042-0.264-1.934-0.79-2.676c-0.526-0.742-1.221-1.232-2.081-1.47
			c-0.556-0.147-1.581-0.221-3.076-0.221h-6.372V38.592z"/>
		<path fill="#FFFFFF" d="M251.154,51.659V26.748h9.397c1.653,0,2.917,0.08,3.789,0.238c1.224,0.204,2.248,0.592,3.075,1.164
			c0.827,0.572,1.493,1.374,1.997,2.405s0.756,2.164,0.756,3.398c0,2.118-0.674,3.911-2.021,5.378
			c-1.349,1.467-3.784,2.201-7.308,2.201h-6.389v10.127H251.154z M254.451,38.592h6.44c2.129,0,3.642-0.396,4.537-1.189
			c0.895-0.792,1.342-1.909,1.342-3.348c0-1.042-0.264-1.934-0.79-2.676c-0.526-0.742-1.221-1.232-2.081-1.47
			c-0.556-0.147-1.581-0.221-3.076-0.221h-6.372V38.592z"/>
		<path fill="#FFFFFF" d="M274.782,51.659V26.748h18.012v2.94h-14.715v7.629h13.78v2.923h-13.78v8.479h15.293v2.94H274.782z"/>
		<path fill="#FFFFFF" d="M298.239,51.659V26.748h3.382l13.084,19.559V26.748h3.161v24.911h-3.382L301.4,32.084v19.575H298.239z"/>
	</g>
</g>
<g id="Icon">
	<path d="M343.835,88.048c5.679-3.407,8.9,0.456,15.104,3.351c5.333,2.488,11.274,2.53,11.799-0.596
		c0.839-5.045,0.657-7.453,0.657-14.31c0-5.451-0.103-20.361-0.187-29.773c-0.167-18.902,1.003-22.268,5.941-22.268
		c5.311,0,5.55,5.23,5.359,22.218c-0.133,11.814-0.193,22.15,0.733,22.15c1.626,0,0.949-5.3,5.223-5.3
		c5.341,0,5.167,4.141,6.655,4.141c1.493,0,2.161-4.03,6.432-4.03c4.27,0,4.835,5.432,6.598,5.432s2.223-1.754,4.866-1.754
		c2.64,0,8.448,5.511,8.448,24.96c0,24.463-7.939,24.721-7.939,33.014h-33.223c-0.977-2.348-3.236-3.727-8.68-9.283
		c-5.489-5.607-17.918-16.331-27.715-18.438C337.352,96.15,340.329,90.152,343.835,88.048z"/>
</g>
</svg>